<svg width="24" height="26" viewBox="0 0 24 26" fill="none" xmlns="http://www.w3.org/2000/svg">
<path d="M22 2H19V1C19 0.734784 18.8946 0.48043 18.7071 0.292893C18.5196 0.105357 18.2652 0 18 0C17.7348 0 17.4804 0.105357 17.2929 0.292893C17.1054 0.48043 17 0.734784 17 1V2H7V1C7 0.734784 6.89464 0.48043 6.70711 0.292893C6.51957 0.105357 6.26522 0 6 0C5.73478 0 5.48043 0.105357 5.29289 0.292893C5.10536 0.48043 5 0.734784 5 1V2H2C1.46957 2 0.960859 2.21071 0.585786 2.58579C0.210714 2.96086 0 3.46957 0 4V24C0 24.5304 0.210714 25.0391 0.585786 25.4142C0.960859 25.7893 1.46957 26 2 26H22C22.5304 26 23.0391 25.7893 23.4142 25.4142C23.7893 25.0391 24 24.5304 24 24V4C24 3.46957 23.7893 2.96086 23.4142 2.58579C23.0391 2.21071 22.5304 2 22 2ZM5 4V5C5 5.26522 5.10536 5.51957 5.29289 5.70711C5.48043 5.89464 5.73478 6 6 6C6.26522 6 6.51957 5.89464 6.70711 5.70711C6.89464 5.51957 7 5.26522 7 5V4H17V5C17 5.26522 17.1054 5.51957 17.2929 5.70711C17.4804 5.89464 17.7348 6 18 6C18.2652 6 18.5196 5.89464 18.7071 5.70711C18.8946 5.51957 19 5.26522 19 5V4H22V8H2V4H5ZM22 24H2V10H22V24ZM14 17C14 17.3956 13.8827 17.7822 13.6629 18.1111C13.4432 18.44 13.1308 18.6964 12.7654 18.8478C12.3999 18.9991 11.9978 19.0387 11.6098 18.9616C11.2219 18.8844 10.8655 18.6939 10.5858 18.4142C10.3061 18.1345 10.1156 17.7781 10.0384 17.3902C9.96126 17.0022 10.0009 16.6001 10.1522 16.2346C10.3036 15.8692 10.56 15.5568 10.8889 15.3371C11.2178 15.1173 11.6044 15 12 15C12.5304 15 13.0391 15.2107 13.4142 15.5858C13.7893 15.9609 14 16.4696 14 17Z" fill="#20372F"/>
</svg>