<svg width="27" height="26" viewBox="0 0 27 26" fill="none" xmlns="http://www.w3.org/2000/svg">
<path d="M26.0051 14.8547C25.7023 13.7236 25.1388 12.679 24.3598 11.8048C23.5808 10.9305 22.6078 10.2508 21.519 9.82006C20.4301 9.38934 19.2554 9.21957 18.0891 9.32435C16.9228 9.42913 15.7973 9.80555 14.8026 10.4235L16.8514 2.24346C16.9022 2.04023 16.8879 1.82616 16.8105 1.63149C16.7331 1.43681 16.5966 1.27135 16.4201 1.15846C15.5696 0.621401 14.6197 0.260919 13.6271 0.0984623C12.6344 -0.0639946 11.6192 -0.0251066 10.6418 0.212812C9.66446 0.450731 8.74497 0.882819 7.93802 1.48337C7.13108 2.08391 6.45319 2.84064 5.94469 3.70853C5.43618 4.57642 5.10745 5.53773 4.97807 6.53526C4.84868 7.53279 4.92127 8.54616 5.19153 9.51506C5.46178 10.484 5.92418 11.3886 6.5512 12.1751C7.17822 12.9617 7.95706 13.6141 8.84136 14.0935L0.732612 16.4097C0.531162 16.4671 0.352814 16.5863 0.222733 16.7504C0.0926514 16.9146 0.0174052 17.1155 0.00761162 17.3247C-0.0693494 19.0321 0.439156 20.7146 1.44892 22.0935C2.45869 23.4724 3.90915 24.4651 5.56011 24.9072C6.19689 25.0782 6.85328 25.1652 7.51261 25.166C8.51731 25.1633 9.51125 24.959 10.4356 24.5653C11.3599 24.1715 12.1958 23.5963 12.8938 22.8736C13.5917 22.1509 14.1376 21.2955 14.4989 20.358C14.8603 19.4206 15.0299 18.4201 14.9976 17.416L21.0576 23.281C21.2083 23.4268 21.401 23.5215 21.6085 23.5518C21.816 23.5821 22.0278 23.5464 22.2139 23.4497C23.7301 22.663 24.9324 21.3822 25.6218 19.8193C26.3112 18.2564 26.4465 16.5049 26.0051 14.8547ZM10.8801 13.9797C10.8801 13.5841 10.9974 13.1975 11.2172 12.8686C11.4369 12.5397 11.7493 12.2833 12.1147 12.1319C12.4802 11.9806 12.8823 11.941 13.2703 12.0181C13.6583 12.0953 14.0146 12.2858 14.2943 12.5655C14.574 12.8452 14.7645 13.2016 14.8417 13.5895C14.9189 13.9775 14.8792 14.3796 14.7279 14.7451C14.5765 15.1105 14.3202 15.4229 13.9913 15.6426C13.6624 15.8624 13.2757 15.9797 12.8801 15.9797C12.3497 15.9797 11.841 15.769 11.4659 15.3939C11.0908 15.0188 10.8801 14.5101 10.8801 13.9797ZM6.88011 7.47971C6.8798 6.55295 7.11367 5.64114 7.56001 4.82894C8.00635 4.01675 8.65069 3.33051 9.43319 2.83395C10.2157 2.33739 11.111 2.04661 12.0359 1.98861C12.9609 1.93062 13.8855 2.10728 14.7239 2.50221L12.8514 9.97971C12.1349 9.98508 11.433 10.1828 10.8191 10.5522C10.2051 10.9216 9.70168 11.4492 9.36136 12.0797C8.59749 11.5802 7.97046 10.8978 7.53716 10.0945C7.10386 9.29119 6.87801 8.39241 6.88011 7.47971ZM10.2551 22.426C9.4527 22.8896 8.54615 23.143 7.61963 23.1625C6.69311 23.1821 5.77666 22.9673 4.95539 22.5379C4.13412 22.1086 3.43464 21.4787 2.92192 20.7067C2.4092 19.9347 2.09986 19.0457 2.02261 18.1222L9.43636 16.0047C9.78884 16.6052 10.2919 17.1032 10.8959 17.4496C11.4999 17.796 12.1839 17.9787 12.8801 17.9797H12.9939C12.9435 18.8902 12.6667 19.7738 12.1884 20.5502C11.7102 21.3266 11.0456 21.9714 10.2551 22.426ZM23.5264 19.551C23.1217 20.2528 22.5668 20.8564 21.9014 21.3185L16.3614 15.9572C16.7159 15.3345 16.8961 14.6279 16.8831 13.9115C16.8702 13.1951 16.6644 12.4954 16.2876 11.886C17.3453 11.352 18.5472 11.1739 19.7143 11.3781C20.8814 11.5824 21.9514 12.1581 22.7649 13.0195C23.5784 13.8809 24.092 14.982 24.2292 16.1589C24.3664 17.3358 24.1199 18.5255 23.5264 19.551Z" fill="#20372F"/>
</svg>