<svg width="22" height="25" viewBox="0 0 22 25" fill="none" xmlns="http://www.w3.org/2000/svg">
<path d="M22 15.9944V23.9831C22 24.2484 21.8946 24.5027 21.7071 24.6902C21.5196 24.8778 21.2652 24.9831 21 24.9831H1C0.734784 24.9831 0.48043 24.8778 0.292893 24.6902C0.105357 24.5027 0 24.2484 0 23.9831V15.9944C0 15.7292 0.105357 15.4748 0.292893 15.2873C0.48043 15.0997 0.734784 14.9944 1 14.9944C1.26522 14.9944 1.51957 15.0997 1.70711 15.2873C1.89464 15.4748 2 15.7292 2 15.9944V22.9831H20V15.9944C20 15.7292 20.1054 15.4748 20.2929 15.2873C20.4804 15.0997 20.7348 14.9944 21 14.9944C21.2652 14.9944 21.5196 15.0997 21.7071 15.2873C21.8946 15.4748 22 15.7292 22 15.9944ZM6 19.9944H16C16.2652 19.9944 16.5196 19.889 16.7071 19.7015C16.8946 19.514 17 19.2596 17 18.9944C17 18.7292 16.8946 18.4748 16.7071 18.2873C16.5196 18.0997 16.2652 17.9944 16 17.9944H6C5.73478 17.9944 5.48043 18.0997 5.29289 18.2873C5.10536 18.4748 5 18.7292 5 18.9944C5 19.2596 5.10536 19.514 5.29289 19.7015C5.48043 19.889 5.73478 19.9944 6 19.9944ZM6.61 13.3694L16.2687 15.9544C16.3535 15.9776 16.4409 15.9894 16.5287 15.9894C16.77 15.9875 17.0024 15.8984 17.1831 15.7387C17.3638 15.5789 17.4807 15.3592 17.5122 15.1201C17.5437 14.8809 17.4878 14.6384 17.3546 14.4373C17.2214 14.2362 17.02 14.09 16.7875 14.0256L7.125 11.4344C6.99453 11.3862 6.85543 11.3657 6.71661 11.3744C6.57779 11.383 6.44228 11.4204 6.31876 11.4844C6.19524 11.5483 6.08642 11.6373 5.99925 11.7457C5.91208 11.8541 5.84848 11.9795 5.81251 12.1138C5.77654 12.2482 5.76899 12.3886 5.79036 12.526C5.81172 12.6635 5.86152 12.7949 5.93657 12.912C6.01162 13.0291 6.11028 13.1293 6.22624 13.2061C6.34219 13.2829 6.4729 13.3347 6.61 13.3581V13.3694ZM8.91625 7.12814L17.5763 12.1281C17.69 12.1938 17.8156 12.2365 17.9458 12.2536C18.076 12.2707 18.2084 12.2621 18.3352 12.2281C18.4621 12.194 18.5811 12.1354 18.6852 12.0554C18.7894 11.9754 18.8769 11.8757 18.9425 11.7619C19.0744 11.5324 19.1099 11.26 19.0412 11.0043C18.9726 10.7487 18.8054 10.5307 18.5763 10.3981L9.91625 5.39189C9.80243 5.31954 9.67515 5.27096 9.54207 5.24907C9.40899 5.22718 9.27286 5.23243 9.14186 5.26452C9.01087 5.29661 8.88772 5.35486 8.77982 5.43578C8.67192 5.51669 8.5815 5.6186 8.51401 5.73536C8.44651 5.85213 8.40333 5.98134 8.38707 6.11522C8.37081 6.24911 8.3818 6.3849 8.41937 6.51443C8.45695 6.64396 8.52034 6.76454 8.60573 6.86894C8.69112 6.97333 8.79675 7.05938 8.91625 7.12189V7.12814ZM19.8325 8.75314C19.9254 8.84622 20.0357 8.92008 20.1572 8.97051C20.2787 9.02095 20.4089 9.04696 20.5404 9.04708C20.6719 9.0472 20.8021 9.02141 20.9237 8.97119C21.0452 8.92097 21.1557 8.8473 21.2488 8.75439C21.3418 8.66148 21.4157 8.55115 21.4661 8.42969C21.5166 8.30824 21.5426 8.17804 21.5427 8.04653C21.5428 7.91501 21.517 7.78477 21.4668 7.66322C21.4166 7.54168 21.3429 7.43122 21.25 7.33814L14.1787 0.275641C13.9898 0.0958497 13.7382 -0.00303503 13.4774 7.1019e-05C13.2167 0.00317707 12.9674 0.108028 12.7828 0.292268C12.5983 0.476508 12.493 0.72556 12.4894 0.986321C12.4859 1.24708 12.5843 1.49892 12.7638 1.68814L19.8325 8.75314Z" fill="#20372F"/>
</svg>