<svg width="24" height="19" viewBox="0 0 24 19" fill="none" xmlns="http://www.w3.org/2000/svg">
<path d="M24.0008 10.0006C24.0008 10.2658 23.8954 10.5201 23.7079 10.7077C23.5204 10.8952 23.266 11.0006 23.0008 11.0006H10.0008C9.73557 11.0006 9.48122 10.8952 9.29368 10.7077C9.10614 10.5201 9.00079 10.2658 9.00079 10.0006C9.00079 9.73534 9.10614 9.48099 9.29368 9.29345C9.48122 9.10591 9.73557 9.00056 10.0008 9.00056H23.0008C23.266 9.00056 23.5204 9.10591 23.7079 9.29345C23.8954 9.48099 24.0008 9.73534 24.0008 10.0006ZM10.0008 3.00056H23.0008C23.266 3.00056 23.5204 2.8952 23.7079 2.70766C23.8954 2.52013 24.0008 2.26577 24.0008 2.00056C24.0008 1.73534 23.8954 1.48099 23.7079 1.29345C23.5204 1.10591 23.266 1.00056 23.0008 1.00056H10.0008C9.73557 1.00056 9.48122 1.10591 9.29368 1.29345C9.10614 1.48099 9.00079 1.73534 9.00079 2.00056C9.00079 2.26577 9.10614 2.52013 9.29368 2.70766C9.48122 2.8952 9.73557 3.00056 10.0008 3.00056ZM23.0008 17.0006H1.00079C0.73557 17.0006 0.481216 17.1059 0.29368 17.2934C0.106144 17.481 0.000786543 17.7353 0.000786543 18.0006C0.000786543 18.2658 0.106144 18.5201 0.29368 18.7077C0.481216 18.8952 0.73557 19.0006 1.00079 19.0006H23.0008C23.266 19.0006 23.5204 18.8952 23.7079 18.7077C23.8954 18.5201 24.0008 18.2658 24.0008 18.0006C24.0008 17.7353 23.8954 17.481 23.7079 17.2934C23.5204 17.1059 23.266 17.0006 23.0008 17.0006ZM0.293287 11.7081C0.38616 11.801 0.496448 11.8748 0.617846 11.9251C0.739244 11.9754 0.869371 12.0013 1.00079 12.0013C1.1322 12.0013 1.26233 11.9754 1.38373 11.9251C1.50512 11.8748 1.61541 11.801 1.70829 11.7081L6.70829 6.70806C6.80126 6.61518 6.87502 6.50489 6.92535 6.3835C6.97567 6.2621 7.00157 6.13197 7.00157 6.00056C7.00157 5.86914 6.97567 5.73901 6.92535 5.61762C6.87502 5.49622 6.80126 5.38593 6.70829 5.29306L1.70829 0.293056C1.52065 0.105415 1.26615 0 1.00079 0C0.735423 0 0.480927 0.105415 0.293287 0.293056C0.105646 0.480697 0.000230551 0.735192 0.000230551 1.00056C0.000230551 1.26592 0.105646 1.52042 0.293287 1.70806L4.58704 6.00056L0.293287 10.2931C0.20031 10.3859 0.126551 10.4962 0.0762269 10.6176C0.0259027 10.739 0 10.8691 0 11.0006C0 11.132 0.0259027 11.2621 0.0762269 11.3835C0.126551 11.5049 0.20031 11.6152 0.293287 11.7081Z" fill="#20372F"/>
</svg>