<svg width="26" height="28" viewBox="0 0 26 28" fill="none" xmlns="http://www.w3.org/2000/svg">
<path d="M24.96 6.26633L13.96 0.247581C13.6661 0.0851839 13.3358 0 13 0C12.6642 0 12.3339 0.0851839 12.04 0.247581L1.04 6.26883C0.725861 6.44071 0.463629 6.69378 0.28069 7.00161C0.0977502 7.30944 0.000812822 7.66074 0 8.01883V19.9738C0.000812822 20.3319 0.0977502 20.6832 0.28069 20.9911C0.463629 21.2989 0.725861 21.552 1.04 21.7238L12.04 27.7451C12.3339 27.9075 12.6642 27.9927 13 27.9927C13.3358 27.9927 13.6661 27.9075 13.96 27.7451L24.96 21.7238C25.2741 21.552 25.5364 21.2989 25.7193 20.9911C25.9023 20.6832 25.9992 20.3319 26 19.9738V8.02008C25.9999 7.66136 25.9032 7.30927 25.7203 7.00073C25.5373 6.69218 25.2747 6.43852 24.96 6.26633ZM13 1.99758L23.0425 7.49758L13 12.9976L2.9575 7.49758L13 1.99758ZM2 9.24758L12 14.7201V25.4438L2 19.9751V9.24758ZM14 25.4438V14.7251L24 9.24758V19.9701L14 25.4438Z" fill="#20372F"/>
</svg>