<svg width="24" height="27" viewBox="0 0 24 27" fill="none" xmlns="http://www.w3.org/2000/svg">
<path d="M11 5C11 5.26522 10.8946 5.51957 10.7071 5.70711C10.5196 5.89464 10.2652 6 10 6H8C7.73478 6 7.48043 5.89464 7.29289 5.70711C7.10536 5.51957 7 5.26522 7 5C7 4.73478 7.10536 4.48043 7.29289 4.29289C7.48043 4.10536 7.73478 4 8 4H10C10.2652 4 10.5196 4.10536 10.7071 4.29289C10.8946 4.48043 11 4.73478 11 5ZM17.54 21.6425L17.98 24.7175C18.0205 25.0011 17.9995 25.2902 17.9186 25.565C17.8376 25.8399 17.6986 26.0941 17.5108 26.3106C17.3231 26.527 17.091 26.7006 16.8304 26.8195C16.5697 26.9385 16.2865 27 16 27H8C7.71348 27 7.4303 26.9385 7.16964 26.8195C6.90898 26.7006 6.67692 26.527 6.48917 26.3106C6.30142 26.0941 6.16237 25.8399 6.08142 25.565C6.00048 25.2902 5.97953 25.0011 6.02 24.7175L6.46 21.6425C4.51363 20.6281 2.88241 19.0998 1.74353 17.2235C0.604648 15.3473 0.00163889 13.1948 0 11C0 10.7348 0.105357 10.4804 0.292893 10.2929C0.48043 10.1054 0.734784 10 1 10H3V2C3 1.46957 3.21071 0.960859 3.58579 0.585786C3.96086 0.210714 4.46957 0 5 0H19C19.5304 0 20.0391 0.210714 20.4142 0.585786C20.7893 0.960859 21 1.46957 21 2V10H23C23.2652 10 23.5196 10.1054 23.7071 10.2929C23.8946 10.4804 24 10.7348 24 11C23.9984 13.1948 23.3954 15.3473 22.2565 17.2235C21.1176 19.0998 19.4864 20.6281 17.54 21.6425ZM5 10H19V2H5V10ZM15.6338 22.4375C13.2693 23.1875 10.7307 23.1875 8.36625 22.4375L8 25H16L15.6338 22.4375ZM21.95 12H2.05C2.29762 14.4669 3.45277 16.7538 5.29133 18.417C7.12989 20.0803 9.52075 21.0013 12 21.0013C14.4793 21.0013 16.8701 20.0803 18.7087 18.417C20.5472 16.7538 21.7024 14.4669 21.95 12Z" fill="#20372F"/>
</svg>