<svg width="31" height="27" viewBox="0 0 31 27" fill="none" xmlns="http://www.w3.org/2000/svg">
<path d="M7 25.5C7 25.7967 6.91203 26.0867 6.7472 26.3334C6.58238 26.58 6.34811 26.7723 6.07403 26.8858C5.79994 26.9993 5.49834 27.0291 5.20737 26.9712C4.91639 26.9133 4.64912 26.7704 4.43934 26.5607C4.22956 26.3509 4.0867 26.0836 4.02882 25.7926C3.97094 25.5017 4.00065 25.2001 4.11418 24.926C4.22771 24.6519 4.41997 24.4176 4.66665 24.2528C4.91332 24.088 5.20333 24 5.5 24C5.89783 24 6.27936 24.158 6.56066 24.4393C6.84197 24.7206 7 25.1022 7 25.5ZM9.5 20C9.20333 20 8.91332 20.088 8.66665 20.2528C8.41997 20.4176 8.22771 20.6519 8.11418 20.926C8.00065 21.2001 7.97094 21.5017 8.02882 21.7926C8.0867 22.0836 8.22956 22.3509 8.43934 22.5607C8.64912 22.7704 8.91639 22.9133 9.20737 22.9712C9.49834 23.0291 9.79994 22.9993 10.074 22.8858C10.3481 22.7723 10.5824 22.58 10.7472 22.3334C10.912 22.0867 11 21.7967 11 21.5C11 21.1022 10.842 20.7206 10.5607 20.4393C10.2794 20.158 9.89783 20 9.5 20ZM1.5 20C1.20333 20 0.913319 20.088 0.666645 20.2528C0.419972 20.4176 0.227713 20.6519 0.114181 20.926C0.000649929 21.2001 -0.0290551 21.5017 0.0288228 21.7926C0.0867006 22.0836 0.229562 22.3509 0.439341 22.5607C0.649119 22.7704 0.916394 22.9133 1.20737 22.9712C1.49834 23.0291 1.79994 22.9993 2.07403 22.8858C2.34811 22.7723 2.58238 22.58 2.74721 22.3334C2.91203 22.0867 3 21.7967 3 21.5C3 21.1022 2.84197 20.7206 2.56066 20.4393C2.27936 20.158 1.89783 20 1.5 20ZM5.5 16C5.20333 16 4.91332 16.088 4.66665 16.2528C4.41997 16.4176 4.22771 16.6519 4.11418 16.926C4.00065 17.2001 3.97094 17.5017 4.02882 17.7926C4.0867 18.0836 4.22956 18.3509 4.43934 18.5607C4.64912 18.7704 4.91639 18.9133 5.20737 18.9712C5.49834 19.0291 5.79994 18.9993 6.07403 18.8858C6.34811 18.7723 6.58238 18.58 6.7472 18.3334C6.91203 18.0867 7 17.7967 7 17.5C7 17.1022 6.84197 16.7206 6.56066 16.4393C6.27936 16.158 5.89783 16 5.5 16ZM31 1C31 1.26522 30.8946 1.51957 30.7071 1.70711C30.5196 1.89464 30.2652 2 30 2H26.4137L22.9325 5.4825L20.225 21.3312C20.1641 21.6933 20.0046 22.0317 19.7642 22.3091C19.5237 22.5866 19.2115 22.7925 18.8617 22.9043C18.512 23.0161 18.1382 23.0295 17.7814 22.943C17.4245 22.8564 17.0984 22.6733 16.8388 22.4137L4.58875 10.1637C4.32875 9.90387 4.14541 9.57735 4.05887 9.22008C3.97233 8.8628 3.98593 8.48858 4.09817 8.13853C4.21042 7.78848 4.41698 7.47613 4.69515 7.23581C4.97333 6.99548 5.31236 6.83647 5.675 6.77625L21.5175 4.0675L25.2925 0.2925C25.3854 0.199666 25.4958 0.126052 25.6171 0.0758637C25.7385 0.0256756 25.8686 -0.000102986 26 3.09201e-07H30C30.2652 3.09201e-07 30.5196 0.105357 30.7071 0.292894C30.8946 0.48043 31 0.734784 31 1ZM20.7763 6.22375L6 8.75L18.25 21L20.7763 6.22375Z" fill="#20372F"/>
</svg>