<svg width="26" height="22" viewBox="0 0 26 22" fill="none" xmlns="http://www.w3.org/2000/svg">
<path d="M24 0H2C1.46957 0 0.960859 0.210714 0.585786 0.585786C0.210714 0.960859 0 1.46957 0 2V20C0 20.5304 0.210714 21.0391 0.585786 21.4142C0.960859 21.7893 1.46957 22 2 22H24C24.5304 22 25.0391 21.7893 25.4142 21.4142C25.7893 21.0391 26 20.5304 26 20V2C26 1.46957 25.7893 0.960859 25.4142 0.585786C25.0391 0.210714 24.5304 0 24 0ZM24 20H2V2H24V20ZM19.2563 5.9575C17.5737 4.695 15.3512 4 13 4C10.6488 4 8.42625 4.695 6.75 5.9575C4.97375 7.28375 4 9.075 4 11C4 12.925 4.97375 14.7162 6.75 16.0425C8.42625 17.305 10.6488 18 13 18C15.3512 18 17.5737 17.305 19.2563 16.0425C21.0263 14.7162 22 12.925 22 11C22 9.075 21.0263 7.28375 19.2563 5.9575ZM13 16C9.14 16 6 13.7575 6 11C6 8.2425 9.14 6 13 6C16.86 6 20 8.2425 20 11C20 13.7575 16.86 16 13 16Z" fill="#20372F"/>
</svg>