<svg width="27" height="28" viewBox="0 0 27 28" fill="none" xmlns="http://www.w3.org/2000/svg">
<path d="M26.4375 26.1085C23.6175 24.7335 22 21.786 22 18.0085V15.8485C22.0011 15.4477 21.8813 15.056 21.6563 14.7244C21.4313 14.3928 21.1115 14.1368 20.7388 13.9897L17.625 12.7572C17.3801 12.6592 17.1837 12.4684 17.0788 12.2263C16.9739 11.9842 16.969 11.7105 17.065 11.4647L19.73 4.83972C19.9109 4.4049 20.0021 3.93804 19.9983 3.46712C19.9945 2.99619 19.8957 2.53088 19.7078 2.09905C19.5199 1.66723 19.2467 1.27776 18.9048 0.953976C18.5628 0.630194 18.159 0.378757 17.7175 0.214723C16.8577 -0.100322 15.9089 -0.0676347 15.0728 0.305836C14.2367 0.679307 13.5792 1.36412 13.24 2.21472C13.2395 2.21971 13.2395 2.22473 13.24 2.22972L10.6125 8.88222C10.5148 9.12834 10.3235 9.32564 10.0804 9.43086C9.83744 9.53608 9.56262 9.54061 9.31628 9.44347L6.13878 8.14972C5.77242 8.00127 5.3701 7.96551 4.98331 8.04701C4.59651 8.12851 4.24283 8.32357 3.96753 8.60722C1.33503 11.3135 2.55627e-05 14.476 2.55627e-05 18.0072C-0.0068925 21.6209 1.39061 25.0958 3.89753 27.6985C3.99145 27.7967 4.1044 27.8747 4.22948 27.9278C4.35456 27.9808 4.48915 28.0079 4.62503 28.0072H26C26.226 28.007 26.4453 27.9302 26.6221 27.7894C26.7989 27.6486 26.9228 27.452 26.9735 27.2318C27.0243 27.0115 26.9989 26.7806 26.9016 26.5766C26.8042 26.3726 26.6407 26.2076 26.4375 26.1085ZM5.39253 10.0072L8.56878 11.2947C8.93541 11.4414 9.3274 11.5143 9.72226 11.5091C10.1171 11.5039 10.5071 11.4209 10.8698 11.2647C11.2324 11.1085 11.5607 10.8822 11.8358 10.5989C12.1108 10.3155 12.3272 9.98064 12.4725 9.61347L15.0975 2.98847C15.4175 2.22472 16.2813 1.82972 17.0263 2.11347C17.2162 2.18394 17.3899 2.29216 17.5369 2.43159C17.6838 2.57102 17.801 2.73878 17.8814 2.92474C17.9618 3.11071 18.0036 3.31103 18.0045 3.51361C18.0053 3.7162 17.9651 3.91685 17.8863 4.10347L15.2113 10.7272C14.9184 11.4661 14.9307 12.2909 15.2454 13.0207C15.5602 13.7505 16.1517 14.3256 16.89 14.6197L20 15.8485V18.0072C20 18.0485 20 18.0897 20 18.1322L3.97128 11.721C4.39741 11.1119 4.87275 10.5387 5.39253 10.0072ZM11.3925 26.0072C9.90367 24.5791 8.84894 22.7591 8.35003 20.7572C8.2805 20.504 8.11417 20.2883 7.88697 20.1567C7.65977 20.0251 7.38992 19.9881 7.1357 20.0538C6.88147 20.1194 6.66326 20.2824 6.52819 20.5076C6.39312 20.7328 6.35202 21.002 6.41378 21.2572C6.84994 22.9794 7.63066 24.5952 8.70878 26.0072H5.05503C3.08276 23.8099 1.99439 20.9599 2.00003 18.0072C1.98779 16.4428 2.31757 14.8946 2.96628 13.471L20.1913 20.361C20.5663 22.611 21.5113 24.546 22.9275 26.006L11.3925 26.0072Z" fill="#20372F"/>
</svg>