<svg width="26" height="24" viewBox="0 0 26 24" fill="none" xmlns="http://www.w3.org/2000/svg">
<path d="M10.4011 0.0425311C9.94862 -0.0527417 9.47702 0.0131828 9.06796 0.228896C8.65891 0.44461 8.33813 0.796538 8.16115 1.22378L8.15365 1.24128L0.153648 21.2325C0.0269879 21.5367 -0.0225456 21.8675 0.00945169 22.1955C0.0414489 22.5235 0.153985 22.8384 0.337056 23.1124C0.520127 23.3864 0.768059 23.6109 1.05881 23.766C1.34956 23.9211 1.67413 24.0019 2.00365 24.0013H10.0036C10.5341 24.0013 11.0428 23.7906 11.4179 23.4155C11.7929 23.0404 12.0036 22.5317 12.0036 22.0013V2.00128C12.0069 1.53914 11.8485 1.0904 11.5559 0.732703C11.2633 0.375007 10.8548 0.130868 10.4011 0.0425311ZM10.0036 22.0013H2.00365L2.01115 21.9825L10.0036 2.00128V22.0013ZM25.8499 21.2325L17.8499 1.24128L17.8424 1.22378C17.6615 0.800926 17.3404 0.453348 16.9331 0.2396C16.5259 0.0258522 16.0574 -0.0410025 15.6066 0.0502981C15.1558 0.141599 14.7503 0.385475 14.4583 0.740844C14.1663 1.09621 14.0058 1.54135 14.0036 2.00128V22.0013C14.0036 22.5317 14.2144 23.0404 14.5894 23.4155C14.9645 23.7906 15.4732 24.0013 16.0036 24.0013H24.0036C24.333 24.0015 24.6572 23.9203 24.9476 23.7651C25.2381 23.6099 25.4857 23.3853 25.6684 23.1114C25.8512 22.8375 25.9635 22.5226 25.9954 22.1949C26.0273 21.8671 25.9777 21.5365 25.8511 21.2325H25.8499ZM16.0036 22.0013V2.00128L23.9949 21.9813L24.0024 22L16.0036 22.0013Z" fill="#20372F"/>
</svg>