<svg width="26" height="28" viewBox="0 0 26 28" fill="none" xmlns="http://www.w3.org/2000/svg">
<path d="M23.1162 14.1763C23.015 14.1175 22.9037 14.0613 22.7887 14.0063C22.9037 13.9513 23.015 13.895 23.1162 13.8363C23.6895 13.5103 24.1926 13.0743 24.5966 12.5531C25.0006 12.032 25.2975 11.4361 25.4703 10.7997C25.643 10.1633 25.6882 9.49909 25.6032 8.84519C25.5182 8.1913 25.3048 7.56066 24.975 6.98961C24.6453 6.41856 24.2059 5.91836 23.6821 5.51782C23.1583 5.11728 22.5605 4.8243 21.923 4.65576C21.2855 4.48721 20.6209 4.44643 19.9676 4.53576C19.3143 4.62509 18.6851 4.84276 18.1162 5.17625C18.015 5.235 17.91 5.30125 17.8062 5.375C17.8162 5.25 17.8225 5.125 17.8225 5C17.8225 3.67392 17.2957 2.40215 16.358 1.46447C15.4203 0.526784 14.1486 0 12.8225 0C11.4964 0 10.2246 0.526784 9.28694 1.46447C8.34926 2.40215 7.82247 3.67392 7.82247 5C7.82247 5.1175 7.82247 5.2425 7.83872 5.375C7.73497 5.30375 7.62997 5.235 7.52872 5.17625C6.95987 4.84276 6.33067 4.62509 5.67735 4.53576C5.02403 4.44643 4.35949 4.48721 3.72199 4.65576C3.0845 4.8243 2.48663 5.11728 1.96283 5.51782C1.43902 5.91836 0.999612 6.41856 0.669905 6.98961C0.340198 7.56066 0.126702 8.1913 0.0417086 8.84519C-0.0432844 9.49909 0.00190425 10.1633 0.174673 10.7997C0.347442 11.4361 0.644378 12.032 1.04839 12.5531C1.45239 13.0743 1.9555 13.5103 2.52872 13.8363C2.62997 13.895 2.74122 13.9513 2.85622 14.0063C2.74122 14.0613 2.62997 14.1175 2.52872 14.1763C1.9555 14.5022 1.45239 14.9382 1.04839 15.4594C0.644378 15.9805 0.347442 16.5764 0.174673 17.2128C0.00190425 17.8492 -0.0432844 18.5134 0.0417086 19.1673C0.126702 19.8212 0.340198 20.4518 0.669905 21.0229C0.999612 21.5939 1.43902 22.0941 1.96283 22.4947C2.48663 22.8952 3.0845 23.1882 3.72199 23.3567C4.35949 23.5253 5.02403 23.5661 5.67735 23.4767C6.33067 23.3874 6.95987 23.1697 7.52872 22.8363C7.62997 22.7775 7.73497 22.7113 7.83872 22.6375C7.82872 22.7625 7.82247 22.8875 7.82247 23.0063C7.82247 24.3323 8.34926 25.6041 9.28694 26.5418C10.2246 27.4795 11.4964 28.0063 12.8225 28.0063C14.1486 28.0063 15.4203 27.4795 16.358 26.5418C17.2957 25.6041 17.8225 24.3323 17.8225 23.0063C17.8225 22.8888 17.8162 22.7638 17.8062 22.6375C17.91 22.7088 18.015 22.7775 18.1162 22.8363C18.8736 23.275 19.7334 23.5061 20.6087 23.5063C21.0485 23.5057 21.4864 23.4477 21.9112 23.3337C22.8664 23.0777 23.7243 22.5442 24.3763 21.8006C25.0283 21.057 25.4451 20.1368 25.5741 19.1563C25.7031 18.1759 25.5384 17.1791 25.1009 16.2922C24.6634 15.4053 23.9727 14.6681 23.1162 14.1737V14.1763ZM9.82247 14.0063C9.82247 13.4129 9.99842 12.8329 10.3281 12.3395C10.6577 11.8462 11.1262 11.4617 11.6744 11.2346C12.2226 11.0075 12.8258 10.9481 13.4077 11.0639C13.9897 11.1797 14.5242 11.4654 14.9438 11.8849C15.3634 12.3045 15.6491 12.839 15.7648 13.421C15.8806 14.0029 15.8212 14.6061 15.5941 15.1543C15.367 15.7025 14.9825 16.171 14.4892 16.5007C13.9958 16.8303 13.4158 17.0063 12.8225 17.0063C12.0268 17.0063 11.2638 16.6902 10.7012 16.1276C10.1385 15.565 9.82247 14.8019 9.82247 14.0063ZM19.1162 6.9075C19.4574 6.71052 19.8341 6.58266 20.2247 6.53124C20.6153 6.47982 21.0122 6.50584 21.3927 6.60781C21.7733 6.70978 22.13 6.88571 22.4426 7.12555C22.7551 7.36538 23.0174 7.66443 23.2143 8.00563C23.4113 8.34682 23.5392 8.72346 23.5906 9.11407C23.642 9.50467 23.616 9.90157 23.514 10.2821C23.4121 10.6627 23.2361 11.0194 22.9963 11.332C22.7565 11.6445 22.4574 11.9068 22.1162 12.1038C21.3325 12.5575 19.79 12.87 17.7212 13.0025C17.503 11.9442 16.9478 10.9851 16.1387 10.2688C17.2887 8.54125 18.3325 7.36125 19.1162 6.9075ZM12.8225 2.00625C13.6181 2.00625 14.3812 2.32232 14.9438 2.88493C15.5064 3.44754 15.8225 4.2106 15.8225 5.00625C15.8225 5.91125 15.3225 7.405 14.4025 9.26375C13.3771 8.92043 12.2678 8.92043 11.2425 9.26375C10.3225 7.405 9.82247 5.91125 9.82247 5.00625C9.82247 4.2106 10.1385 3.44754 10.7012 2.88493C11.2638 2.32232 12.0268 2.00625 12.8225 2.00625ZM2.42997 8.00625C2.6269 7.66492 2.88914 7.36573 3.20173 7.12578C3.51431 6.88582 3.8711 6.7098 4.25173 6.60776C4.63235 6.50573 5.02935 6.47968 5.42004 6.53111C5.81074 6.58254 6.18747 6.71044 6.52872 6.9075C7.31247 7.36125 8.35622 8.54125 9.50622 10.2688C8.69648 10.986 8.1412 11.9466 7.92372 13.0063C5.85497 12.8738 4.31247 12.5613 3.52872 12.1088C3.1869 11.9118 2.88727 11.6494 2.64698 11.3365C2.4067 11.0237 2.23049 10.6665 2.12843 10.2854C2.02637 9.90433 2.00047 9.50688 2.05222 9.11579C2.10396 8.7247 2.23233 8.34766 2.42997 8.00625ZM6.52872 21.105C5.83966 21.5028 5.02078 21.6106 4.25223 21.4047C3.48368 21.1987 2.82842 20.6959 2.4306 20.0069C2.03277 19.3178 1.92497 18.4989 2.13091 17.7304C2.33685 16.9618 2.83966 16.3066 3.52872 15.9088C4.31247 15.455 5.85497 15.1425 7.92372 15.01C8.14196 16.0683 8.69718 17.0274 9.50622 17.7437C8.35622 19.4712 7.31247 20.6512 6.52872 21.105ZM12.8225 26.0063C12.0268 26.0063 11.2638 25.6902 10.7012 25.1276C10.1385 24.565 9.82247 23.8019 9.82247 23.0063C9.82247 22.1012 10.3225 20.6075 11.2425 18.7488C12.2678 19.0921 13.3771 19.0921 14.4025 18.7488C15.3225 20.6075 15.8225 22.1012 15.8225 23.0063C15.8225 23.8019 15.5064 24.565 14.9438 25.1276C14.3812 25.6902 13.6181 26.0063 12.8225 26.0063ZM23.215 20.0063C23.018 20.3476 22.7558 20.6468 22.4432 20.8867C22.1306 21.1267 21.7738 21.3027 21.3932 21.4047C21.0126 21.5068 20.6156 21.5328 20.2249 21.4814C19.8342 21.43 19.4575 21.3021 19.1162 21.105C18.3325 20.6512 17.2887 19.4712 16.1387 17.7437C16.9485 17.0265 17.5037 16.0659 17.7212 15.0063C19.79 15.1388 21.3325 15.4512 22.1162 15.9037C22.4581 16.1007 22.7577 16.3631 22.998 16.676C23.2382 16.9888 23.4145 17.346 23.5165 17.7271C23.6186 18.1082 23.6445 18.5056 23.5927 18.8967C23.541 19.2878 23.4126 19.6648 23.215 20.0063Z" fill="#20372F"/>
</svg>