<svg width="16" height="16" viewBox="0 0 16 16" fill="none" xmlns="http://www.w3.org/2000/svg">
<path opacity="0.2" d="M15.5 7V10.5H7V5H13.5C14.0304 5 14.5391 5.21071 14.9142 5.58579C15.2893 5.96086 15.5 6.46957 15.5 7Z" fill="white"/>
<path d="M13.5 4.5H2V3C2 2.86739 1.94732 2.74021 1.85355 2.64645C1.75979 2.55268 1.63261 2.5 1.5 2.5C1.36739 2.5 1.24021 2.55268 1.14645 2.64645C1.05268 2.74021 1 2.86739 1 3V13C1 13.1326 1.05268 13.2598 1.14645 13.3536C1.24021 13.4473 1.36739 13.5 1.5 13.5C1.63261 13.5 1.75979 13.4473 1.85355 13.3536C1.94732 13.2598 2 13.1326 2 13V11H15V13C15 13.1326 15.0527 13.2598 15.1464 13.3536C15.2402 13.4473 15.3674 13.5 15.5 13.5C15.6326 13.5 15.7598 13.4473 15.8536 13.3536C15.9473 13.2598 16 13.1326 16 13V7C16 6.33696 15.7366 5.70107 15.2678 5.23223C14.7989 4.76339 14.163 4.5 13.5 4.5ZM2 5.5H6.5V10H2V5.5ZM7.5 10V5.5H13.5C13.8978 5.5 14.2794 5.65804 14.5607 5.93934C14.842 6.22064 15 6.60218 15 7V10H7.5Z" fill="white"/>
</svg>
