<svg width="28" height="21" viewBox="0 0 28 21" fill="none" xmlns="http://www.w3.org/2000/svg">
<path d="M15.5005 19.5016C15.5005 19.7983 15.4125 20.0883 15.2477 20.335C15.0829 20.5816 14.8486 20.7739 14.5745 20.8874C14.3004 21.001 13.9988 21.0307 13.7078 20.9728C13.4169 20.9149 13.1496 20.7721 12.9398 20.5623C12.73 20.3525 12.5872 20.0852 12.5293 19.7943C12.4714 19.5033 12.5011 19.2017 12.6147 18.9276C12.7282 18.6535 12.9204 18.4192 13.1671 18.2544C13.4138 18.0896 13.7038 18.0016 14.0005 18.0016C14.3983 18.0016 14.7798 18.1597 15.0611 18.441C15.3424 18.7223 15.5005 19.1038 15.5005 19.5016ZM27.6355 4.87662C23.7911 1.72335 18.9726 0 14.0005 0C9.02831 0 4.20985 1.72335 0.365474 4.87662C0.263945 4.96001 0.179836 5.06258 0.117948 5.17847C0.0560597 5.29437 0.0176049 5.42132 0.00477885 5.55208C-0.00804724 5.68283 0.00500665 5.81484 0.0431952 5.94055C0.0813838 6.06626 0.143959 6.18322 0.227349 6.28474C0.310738 6.38627 0.413308 6.47038 0.529203 6.53227C0.645098 6.59416 0.772048 6.63261 0.902804 6.64544C1.16688 6.67134 1.43043 6.59128 1.63547 6.42287C5.12198 3.56376 9.49156 2.00122 14.0005 2.00122C18.5094 2.00122 22.879 3.56376 26.3655 6.42287C26.5705 6.59128 26.8341 6.67134 27.0981 6.64544C27.3622 6.61954 27.6052 6.48979 27.7736 6.28474C27.942 6.0797 28.0221 5.81615 27.9962 5.55208C27.9703 5.288 27.8405 5.04503 27.6355 4.87662ZM23.6255 9.34787C20.8871 7.1799 17.4969 6.0003 14.0042 6.0003C10.5116 6.0003 7.1213 7.1799 4.38297 9.34787C4.17511 9.51264 4.04121 9.75323 4.01074 10.0167C3.98026 10.2802 4.05571 10.545 4.22047 10.7529C4.38524 10.9607 4.62583 11.0946 4.88932 11.1251C5.15281 11.1556 5.41761 11.0801 5.62547 10.9154C8.0103 9.02765 10.9627 8.00057 14.0042 8.00057C17.0457 8.00057 19.9981 9.02765 22.383 10.9154C22.4859 10.997 22.6039 11.0575 22.7302 11.0935C22.8565 11.1295 22.9887 11.1402 23.1191 11.1251C23.2496 11.1101 23.3758 11.0694 23.4906 11.0055C23.6053 10.9417 23.7064 10.8558 23.788 10.7529C23.8696 10.65 23.9301 10.532 23.9661 10.4057C24.0021 10.2793 24.0128 10.1472 23.9978 10.0167C23.9827 9.88624 23.942 9.76002 23.8781 9.64526C23.8143 9.5305 23.7284 9.42945 23.6255 9.34787ZM19.593 13.8179C17.9686 12.6374 16.0122 12.0015 14.0042 12.0015C11.9962 12.0015 10.0398 12.6374 8.41547 13.8179C8.20098 13.974 8.0573 14.209 8.01604 14.4711C7.97478 14.7331 8.03933 15.0009 8.19547 15.2154C8.35162 15.4299 8.58658 15.5735 8.84866 15.6148C9.11074 15.6561 9.37848 15.5915 9.59297 15.4354C10.8749 14.5031 12.4192 14.0009 14.0042 14.0009C15.5893 14.0009 17.1336 14.5031 18.4155 15.4354C18.5217 15.5127 18.6421 15.5683 18.7698 15.5991C18.8975 15.6299 19.03 15.6352 19.1598 15.6148C19.2896 15.5944 19.414 15.5486 19.5261 15.48C19.6382 15.4115 19.7357 15.3216 19.813 15.2154C19.8903 15.1092 19.9459 14.9888 19.9767 14.8611C20.0075 14.7333 20.0128 14.6008 19.9924 14.4711C19.972 14.3413 19.9262 14.2168 19.8577 14.1047C19.7891 13.9927 19.6992 13.8952 19.593 13.8179Z" fill="#20372F"/>
</svg>